<svg xmlns="http://www.w3.org/2000/svg" width="1600" height="600" viewBox="0 0 1600 600">
<defs><pattern id="g" width="24" height="24" patternUnits="userSpaceOnUse"><circle cx="1" cy="1" r="1" fill="rgba(255,255,255,.075)"/></pattern><linearGradient id="fade" x1="0" y1="0" x2="0" y2="1"><stop offset="0" stop-color="#fff"/><stop offset="1" stop-color="#fff" stop-opacity=".35"/></linearGradient><mask id="m"><rect width="1600" height="600" fill="url(#fade)"/></mask><radialGradient id="glow" cx=".9" cy="1.1" r=".8"><stop offset="0" stop-color="#ff4d2e" stop-opacity=".22"/><stop offset=".6" stop-color="#ff4d2e" stop-opacity="0"/></radialGradient></defs>
<rect width="1600" height="600" rx="30" fill="#09090d"/><rect width="1600" height="600" rx="30" fill="url(#glow)"/>
<rect width="1600" height="600" rx="30" fill="url(#g)" mask="url(#m)"/><rect x=".5" y=".5" width="1599" height="599" rx="29.5" fill="none" stroke="rgba(255,255,255,.14)"/>
<g font-family="'JetBrains Mono',ui-monospace,Menlo,Consolas,monospace" font-size="12" letter-spacing="1.9" fill="#64637a"><text x="56" y="44">06 &#160; GITHUB</text><text x="800" y="44" text-anchor="middle">LIVE FROM THE GRAPHQL API · REFRESHED DAILY</text><text x="1544" y="44" text-anchor="end">UPDATED 2026-10-07</text></g>
<text x="72" y="104" font-family="'JetBrains Mono',ui-monospace,Menlo,Consolas,monospace" font-size="12" letter-spacing="1.9" fill="#ff4d2e">THE LAST 12 MONTHS ON GITHUB</text>
<text x="72" y="186" font-family="Inter,ui-sans-serif,system-ui,-apple-system,'Segoe UI',Roboto,sans-serif" font-size="64" font-weight="800" letter-spacing="-3" fill="#f4f3f8">2,556</text><text x="72" y="214" font-family="'JetBrains Mono',ui-monospace,Menlo,Consolas,monospace" font-size="11" letter-spacing="1.7" fill="#64637a">CONTRIBUTIONS</text>
<text x="372" y="186" font-family="Inter,ui-sans-serif,system-ui,-apple-system,'Segoe UI',Roboto,sans-serif" font-size="64" font-weight="800" letter-spacing="-3" fill="#f4f3f8">28</text><text x="372" y="214" font-family="'JetBrains Mono',ui-monospace,Menlo,Consolas,monospace" font-size="11" letter-spacing="1.7" fill="#64637a">REPOSITORIES</text>
<line x1="342" y1="138" x2="342" y2="214" stroke="rgba(255,255,255,.14)"/>
<text x="672" y="186" font-family="Inter,ui-sans-serif,system-ui,-apple-system,'Segoe UI',Roboto,sans-serif" font-size="64" font-weight="800" letter-spacing="-3" fill="#f4f3f8">122</text><text x="672" y="214" font-family="'JetBrains Mono',ui-monospace,Menlo,Consolas,monospace" font-size="11" letter-spacing="1.7" fill="#64637a">ACTIVE DAYS</text>
<line x1="642" y1="138" x2="642" y2="214" stroke="rgba(255,255,255,.14)"/>
<text x="972" y="186" font-family="Inter,ui-sans-serif,system-ui,-apple-system,'Segoe UI',Roboto,sans-serif" font-size="64" font-weight="800" letter-spacing="-3" fill="#f4f3f8">40</text><text x="972" y="214" font-family="'JetBrains Mono',ui-monospace,Menlo,Consolas,monospace" font-size="11" letter-spacing="1.7" fill="#64637a">LONGEST STREAK, DAYS</text>
<line x1="942" y1="138" x2="942" y2="214" stroke="rgba(255,255,255,.14)"/>
<text x="1272" y="186" font-family="Inter,ui-sans-serif,system-ui,-apple-system,'Segoe UI',Roboto,sans-serif" font-size="64" font-weight="800" letter-spacing="-3" fill="#f4f3f8">16</text><text x="1272" y="214" font-family="'JetBrains Mono',ui-monospace,Menlo,Consolas,monospace" font-size="11" letter-spacing="1.7" fill="#64637a">FOLLOWERS</text>
<line x1="1242" y1="138" x2="1242" y2="214" stroke="rgba(255,255,255,.14)"/>
<text x="72" y="248" font-family="'JetBrains Mono',ui-monospace,Menlo,Consolas,monospace" font-size="11" letter-spacing="1.7" fill="#64637a">CONTRIBUTIONS, ONE SQUARE PER DAY · 887 PUBLIC COMMITS · 1,656 PRIVATE</text>
<rect x="72.0" y="262.0" width="23.5" height="23.5" rx="5" fill="rgba(255,255,255,0.08)"/>
<rect x="72.0" y="289.5" width="23.5" height="23.5" rx="5" fill="rgba(255,255,255,0.08)"/>
<rect x="72.0" y="317.1" width="23.5" height="23.5" rx="5" fill="rgba(255,255,255,0.08)"/>
<rect x="72.0" y="344.6" width="23.5" height="23.5" rx="5" fill="rgba(255,255,255,0.08)"/>
<rect x="72.0" y="372.2" width="23.5" height="23.5" rx="5" fill="rgba(255,77,46,0.34)"/>
<rect x="72.0" y="399.7" width="23.5" height="23.5" rx="5" fill="rgba(255,77,46,0.32)"/>
<rect x="72.0" y="427.3" width="23.5" height="23.5" rx="5" fill="rgba(255,255,255,0.08)"/>
<rect x="99.5" y="262.0" width="23.5" height="23.5" rx="5" fill="rgba(255,77,46,0.35)"/>
<rect x="99.5" y="289.5" width="23.5" height="23.5" rx="5" fill="rgba(255,255,255,0.08)"/>
<rect x="99.5" y="317.1" width="23.5" height="23.5" rx="5" fill="rgba(255,255,255,0.08)"/>
<rect x="99.5" y="344.6" width="23.5" height="23.5" rx="5" fill="rgba(255,255,255,0.08)"/>
<rect x="99.5" y="372.2" width="23.5" height="23.5" rx="5" fill="rgba(255,255,255,0.08)"/>
<rect x="99.5" y="399.7" width="23.5" height="23.5" rx="5" fill="rgba(255,255,255,0.08)"/>
<rect x="99.5" y="427.3" width="23.5" height="23.5" rx="5" fill="rgba(255,255,255,0.08)"/>
<rect x="127.1" y="262.0" width="23.5" height="23.5" rx="5" fill="rgba(255,255,255,0.08)"/>
<rect x="127.1" y="289.5" width="23.5" height="23.5" rx="5" fill="rgba(255,255,255,0.08)"/>
<rect x="127.1" y="317.1" width="23.5" height="23.5" rx="5" fill="rgba(255,255,255,0.08)"/>
<rect x="127.1" y="344.6" width="23.5" height="23.5" rx="5" fill="rgba(255,255,255,0.08)"/>
<rect x="127.1" y="372.2" width="23.5" height="23.5" rx="5" fill="rgba(255,255,255,0.08)"/>
<rect x="127.1" y="399.7" width="23.5" height="23.5" rx="5" fill="rgba(255,255,255,0.08)"/>
<rect x="127.1" y="427.3" width="23.5" height="23.5" rx="5" fill="rgba(255,255,255,0.08)"/>
<rect x="154.6" y="262.0" width="23.5" height="23.5" rx="5" fill="rgba(255,255,255,0.08)"/>
<rect x="154.6" y="289.5" width="23.5" height="23.5" rx="5" fill="rgba(255,255,255,0.08)"/>
<rect x="154.6" y="317.1" width="23.5" height="23.5" rx="5" fill="rgba(255,255,255,0.08)"/>
<rect x="154.6" y="344.6" width="23.5" height="23.5" rx="5" fill="rgba(255,255,255,0.08)"/>
<rect x="154.6" y="372.2" width="23.5" height="23.5" rx="5" fill="rgba(255,255,255,0.08)"/>
<rect x="154.6" y="399.7" width="23.5" height="23.5" rx="5" fill="rgba(255,255,255,0.08)"/>
<rect x="154.6" y="427.3" width="23.5" height="23.5" rx="5" fill="rgba(255,255,255,0.08)"/>
<rect x="182.2" y="262.0" width="23.5" height="23.5" rx="5" fill="rgba(255,255,255,0.08)"/>
<rect x="182.2" y="289.5" width="23.5" height="23.5" rx="5" fill="rgba(255,255,255,0.08)"/>
<rect x="182.2" y="317.1" width="23.5" height="23.5" rx="5" fill="rgba(255,255,255,0.08)"/>
<rect x="182.2" y="344.6" width="23.5" height="23.5" rx="5" fill="rgba(255,255,255,0.08)"/>
<rect x="182.2" y="372.2" width="23.5" height="23.5" rx="5" fill="rgba(255,255,255,0.08)"/>
<rect x="182.2" y="399.7" width="23.5" height="23.5" rx="5" fill="rgba(255,255,255,0.08)"/>
<rect x="182.2" y="427.3" width="23.5" height="23.5" rx="5" fill="rgba(255,255,255,0.08)"/>
<rect x="209.7" y="262.0" width="23.5" height="23.5" rx="5" fill="rgba(255,255,255,0.08)"/>
<rect x="209.7" y="289.5" width="23.5" height="23.5" rx="5" fill="rgba(255,255,255,0.08)"/>
<rect x="209.7" y="317.1" width="23.5" height="23.5" rx="5" fill="rgba(255,255,255,0.08)"/>
<rect x="209.7" y="344.6" width="23.5" height="23.5" rx="5" fill="rgba(255,255,255,0.08)"/>
<rect x="209.7" y="372.2" width="23.5" height="23.5" rx="5" fill="rgba(255,77,46,0.38)"/>
<rect x="209.7" y="399.7" width="23.5" height="23.5" rx="5" fill="rgba(255,255,255,0.08)"/>
<rect x="209.7" y="427.3" width="23.5" height="23.5" rx="5" fill="rgba(255,255,255,0.08)"/>
<rect x="237.3" y="262.0" width="23.5" height="23.5" rx="5" fill="rgba(255,77,46,0.37)"/>
<rect x="237.3" y="289.5" width="23.5" height="23.5" rx="5" fill="rgba(255,255,255,0.08)"/>
<rect x="237.3" y="317.1" width="23.5" height="23.5" rx="5" fill="rgba(255,255,255,0.08)"/>
<rect x="237.3" y="344.6" width="23.5" height="23.5" rx="5" fill="rgba(255,255,255,0.08)"/>
<rect x="237.3" y="372.2" width="23.5" height="23.5" rx="5" fill="rgba(255,255,255,0.08)"/>
<rect x="237.3" y="399.7" width="23.5" height="23.5" rx="5" fill="rgba(255,77,46,0.30)"/>
<rect x="237.3" y="427.3" width="23.5" height="23.5" rx="5" fill="rgba(255,77,46,0.34)"/>
<rect x="264.8" y="262.0" width="23.5" height="23.5" rx="5" fill="rgba(255,77,46,0.30)"/>
<rect x="264.8" y="289.5" width="23.5" height="23.5" rx="5" fill="rgba(255,77,46,0.34)"/>
<rect x="264.8" y="317.1" width="23.5" height="23.5" rx="5" fill="rgba(255,77,46,0.32)"/>
<rect x="264.8" y="344.6" width="23.5" height="23.5" rx="5" fill="rgba(255,255,255,0.08)"/>
<rect x="264.8" y="372.2" width="23.5" height="23.5" rx="5" fill="rgba(255,77,46,0.32)"/>
<rect x="264.8" y="399.7" width="23.5" height="23.5" rx="5" fill="rgba(255,255,255,0.08)"/>
<rect x="264.8" y="427.3" width="23.5" height="23.5" rx="5" fill="rgba(255,255,255,0.08)"/>
<rect x="292.4" y="262.0" width="23.5" height="23.5" rx="5" fill="rgba(255,77,46,0.32)"/>
<rect x="292.4" y="289.5" width="23.5" height="23.5" rx="5" fill="rgba(255,77,46,0.38)"/>
<rect x="292.4" y="317.1" width="23.5" height="23.5" rx="5" fill="rgba(255,77,46,0.30)"/>
<rect x="292.4" y="344.6" width="23.5" height="23.5" rx="5" fill="rgba(255,255,255,0.08)"/>
<rect x="292.4" y="372.2" width="23.5" height="23.5" rx="5" fill="rgba(255,255,255,0.08)"/>
<rect x="292.4" y="399.7" width="23.5" height="23.5" rx="5" fill="rgba(255,255,255,0.08)"/>
<rect x="292.4" y="427.3" width="23.5" height="23.5" rx="5" fill="rgba(255,255,255,0.08)"/>
<rect x="319.9" y="262.0" width="23.5" height="23.5" rx="5" fill="rgba(255,77,46,0.41)"/>
<rect x="319.9" y="289.5" width="23.5" height="23.5" rx="5" fill="rgba(255,77,46,0.38)"/>
<rect x="319.9" y="317.1" width="23.5" height="23.5" rx="5" fill="rgba(255,77,46,0.52)"/>
<rect x="319.9" y="344.6" width="23.5" height="23.5" rx="5" fill="rgba(255,255,255,0.08)"/>
<rect x="319.9" y="372.2" width="23.5" height="23.5" rx="5" fill="rgba(255,77,46,0.38)"/>
<rect x="319.9" y="399.7" width="23.5" height="23.5" rx="5" fill="rgba(255,77,46,0.39)"/>
<rect x="319.9" y="427.3" width="23.5" height="23.5" rx="5" fill="rgba(255,255,255,0.08)"/>
<rect x="347.5" y="262.0" width="23.5" height="23.5" rx="5" fill="rgba(255,77,46,0.30)"/>
<rect x="347.5" y="289.5" width="23.5" height="23.5" rx="5" fill="rgba(255,77,46,0.45)"/>
<rect x="347.5" y="317.1" width="23.5" height="23.5" rx="5" fill="rgba(255,77,46,0.39)"/>
<rect x="347.5" y="344.6" width="23.5" height="23.5" rx="5" fill="rgba(255,77,46,0.30)"/>
<rect x="347.5" y="372.2" width="23.5" height="23.5" rx="5" fill="rgba(255,255,255,0.08)"/>
<rect x="347.5" y="399.7" width="23.5" height="23.5" rx="5" fill="rgba(255,77,46,0.30)"/>
<rect x="347.5" y="427.3" width="23.5" height="23.5" rx="5" fill="rgba(255,77,46,0.37)"/>
<rect x="375.0" y="262.0" width="23.5" height="23.5" rx="5" fill="rgba(255,255,255,0.08)"/>
<rect x="375.0" y="289.5" width="23.5" height="23.5" rx="5" fill="rgba(255,255,255,0.08)"/>
<rect x="375.0" y="317.1" width="23.5" height="23.5" rx="5" fill="rgba(255,255,255,0.08)"/>
<rect x="375.0" y="344.6" width="23.5" height="23.5" rx="5" fill="rgba(255,255,255,0.08)"/>
<rect x="375.0" y="372.2" width="23.5" height="23.5" rx="5" fill="rgba(255,255,255,0.08)"/>
<rect x="375.0" y="399.7" width="23.5" height="23.5" rx="5" fill="rgba(255,255,255,0.08)"/>
<rect x="375.0" y="427.3" width="23.5" height="23.5" rx="5" fill="rgba(255,255,255,0.08)"/>
<rect x="402.6" y="262.0" width="23.5" height="23.5" rx="5" fill="rgba(255,255,255,0.08)"/>
<rect x="402.6" y="289.5" width="23.5" height="23.5" rx="5" fill="rgba(255,255,255,0.08)"/>
<rect x="402.6" y="317.1" width="23.5" height="23.5" rx="5" fill="rgba(255,255,255,0.08)"/>
<rect x="402.6" y="344.6" width="23.5" height="23.5" rx="5" fill="rgba(255,255,255,0.08)"/>
<rect x="402.6" y="372.2" width="23.5" height="23.5" rx="5" fill="rgba(255,255,255,0.08)"/>
<rect x="402.6" y="399.7" width="23.5" height="23.5" rx="5" fill="rgba(255,255,255,0.08)"/>
<rect x="402.6" y="427.3" width="23.5" height="23.5" rx="5" fill="rgba(255,255,255,0.08)"/>
<rect x="430.1" y="262.0" width="23.5" height="23.5" rx="5" fill="rgba(255,255,255,0.08)"/>
<rect x="430.1" y="289.5" width="23.5" height="23.5" rx="5" fill="rgba(255,255,255,0.08)"/>
<rect x="430.1" y="317.1" width="23.5" height="23.5" rx="5" fill="rgba(255,255,255,0.08)"/>
<rect x="430.1" y="344.6" width="23.5" height="23.5" rx="5" fill="rgba(255,255,255,0.08)"/>
<rect x="430.1" y="372.2" width="23.5" height="23.5" rx="5" fill="rgba(255,255,255,0.08)"/>
<rect x="430.1" y="399.7" width="23.5" height="23.5" rx="5" fill="rgba(255,255,255,0.08)"/>
<rect x="430.1" y="427.3" width="23.5" height="23.5" rx="5" fill="rgba(255,255,255,0.08)"/>
<rect x="457.7" y="262.0" width="23.5" height="23.5" rx="5" fill="rgba(255,255,255,0.08)"/>
<rect x="457.7" y="289.5" width="23.5" height="23.5" rx="5" fill="rgba(255,255,255,0.08)"/>
<rect x="457.7" y="317.1" width="23.5" height="23.5" rx="5" fill="rgba(255,255,255,0.08)"/>
<rect x="457.7" y="344.6" width="23.5" height="23.5" rx="5" fill="rgba(255,255,255,0.08)"/>
<rect x="457.7" y="372.2" width="23.5" height="23.5" rx="5" fill="rgba(255,255,255,0.08)"/>
<rect x="457.7" y="399.7" width="23.5" height="23.5" rx="5" fill="rgba(255,255,255,0.08)"/>
<rect x="457.7" y="427.3" width="23.5" height="23.5" rx="5" fill="rgba(255,255,255,0.08)"/>
<rect x="485.2" y="262.0" width="23.5" height="23.5" rx="5" fill="rgba(255,255,255,0.08)"/>
<rect x="485.2" y="289.5" width="23.5" height="23.5" rx="5" fill="rgba(255,255,255,0.08)"/>
<rect x="485.2" y="317.1" width="23.5" height="23.5" rx="5" fill="rgba(255,255,255,0.08)"/>
<rect x="485.2" y="344.6" width="23.5" height="23.5" rx="5" fill="rgba(255,255,255,0.08)"/>
<rect x="485.2" y="372.2" width="23.5" height="23.5" rx="5" fill="rgba(255,255,255,0.08)"/>
<rect x="485.2" y="399.7" width="23.5" height="23.5" rx="5" fill="rgba(255,255,255,0.08)"/>
<rect x="485.2" y="427.3" width="23.5" height="23.5" rx="5" fill="rgba(255,255,255,0.08)"/>
<rect x="512.8" y="262.0" width="23.5" height="23.5" rx="5" fill="rgba(255,255,255,0.08)"/>
<rect x="512.8" y="289.5" width="23.5" height="23.5" rx="5" fill="rgba(255,255,255,0.08)"/>
<rect x="512.8" y="317.1" width="23.5" height="23.5" rx="5" fill="rgba(255,255,255,0.08)"/>
<rect x="512.8" y="344.6" width="23.5" height="23.5" rx="5" fill="rgba(255,255,255,0.08)"/>
<rect x="512.8" y="372.2" width="23.5" height="23.5" rx="5" fill="rgba(255,255,255,0.08)"/>
<rect x="512.8" y="399.7" width="23.5" height="23.5" rx="5" fill="rgba(255,255,255,0.08)"/>
<rect x="512.8" y="427.3" width="23.5" height="23.5" rx="5" fill="rgba(255,255,255,0.08)"/>
<rect x="540.3" y="262.0" width="23.5" height="23.5" rx="5" fill="rgba(255,255,255,0.08)"/>
<rect x="540.3" y="289.5" width="23.5" height="23.5" rx="5" fill="rgba(255,255,255,0.08)"/>
<rect x="540.3" y="317.1" width="23.5" height="23.5" rx="5" fill="rgba(255,255,255,0.08)"/>
<rect x="540.3" y="344.6" width="23.5" height="23.5" rx="5" fill="rgba(255,255,255,0.08)"/>
<rect x="540.3" y="372.2" width="23.5" height="23.5" rx="5" fill="rgba(255,255,255,0.08)"/>
<rect x="540.3" y="399.7" width="23.5" height="23.5" rx="5" fill="rgba(255,255,255,0.08)"/>
<rect x="540.3" y="427.3" width="23.5" height="23.5" rx="5" fill="rgba(255,255,255,0.08)"/>
<rect x="567.8" y="262.0" width="23.5" height="23.5" rx="5" fill="rgba(255,255,255,0.08)"/>
<rect x="567.8" y="289.5" width="23.5" height="23.5" rx="5" fill="rgba(255,255,255,0.08)"/>
<rect x="567.8" y="317.1" width="23.5" height="23.5" rx="5" fill="rgba(255,255,255,0.08)"/>
<rect x="567.8" y="344.6" width="23.5" height="23.5" rx="5" fill="rgba(255,255,255,0.08)"/>
<rect x="567.8" y="372.2" width="23.5" height="23.5" rx="5" fill="rgba(255,255,255,0.08)"/>
<rect x="567.8" y="399.7" width="23.5" height="23.5" rx="5" fill="rgba(255,255,255,0.08)"/>
<rect x="567.8" y="427.3" width="23.5" height="23.5" rx="5" fill="rgba(255,255,255,0.08)"/>
<rect x="595.4" y="262.0" width="23.5" height="23.5" rx="5" fill="rgba(255,255,255,0.08)"/>
<rect x="595.4" y="289.5" width="23.5" height="23.5" rx="5" fill="rgba(255,255,255,0.08)"/>
<rect x="595.4" y="317.1" width="23.5" height="23.5" rx="5" fill="rgba(255,255,255,0.08)"/>
<rect x="595.4" y="344.6" width="23.5" height="23.5" rx="5" fill="rgba(255,255,255,0.08)"/>
<rect x="595.4" y="372.2" width="23.5" height="23.5" rx="5" fill="rgba(255,255,255,0.08)"/>
<rect x="595.4" y="399.7" width="23.5" height="23.5" rx="5" fill="rgba(255,255,255,0.08)"/>
<rect x="595.4" y="427.3" width="23.5" height="23.5" rx="5" fill="rgba(255,255,255,0.08)"/>
<rect x="622.9" y="262.0" width="23.5" height="23.5" rx="5" fill="rgba(255,255,255,0.08)"/>
<rect x="622.9" y="289.5" width="23.5" height="23.5" rx="5" fill="rgba(255,255,255,0.08)"/>
<rect x="622.9" y="317.1" width="23.5" height="23.5" rx="5" fill="rgba(255,77,46,0.30)"/>
<rect x="622.9" y="344.6" width="23.5" height="23.5" rx="5" fill="rgba(255,255,255,0.08)"/>
<rect x="622.9" y="372.2" width="23.5" height="23.5" rx="5" fill="rgba(255,255,255,0.08)"/>
<rect x="622.9" y="399.7" width="23.5" height="23.5" rx="5" fill="rgba(255,255,255,0.08)"/>
<rect x="622.9" y="427.3" width="23.5" height="23.5" rx="5" fill="rgba(255,255,255,0.08)"/>
<rect x="650.5" y="262.0" width="23.5" height="23.5" rx="5" fill="rgba(255,255,255,0.08)"/>
<rect x="650.5" y="289.5" width="23.5" height="23.5" rx="5" fill="rgba(255,255,255,0.08)"/>
<rect x="650.5" y="317.1" width="23.5" height="23.5" rx="5" fill="rgba(255,255,255,0.08)"/>
<rect x="650.5" y="344.6" width="23.5" height="23.5" rx="5" fill="rgba(255,255,255,0.08)"/>
<rect x="650.5" y="372.2" width="23.5" height="23.5" rx="5" fill="rgba(255,255,255,0.08)"/>
<rect x="650.5" y="399.7" width="23.5" height="23.5" rx="5" fill="rgba(255,255,255,0.08)"/>
<rect x="650.5" y="427.3" width="23.5" height="23.5" rx="5" fill="rgba(255,255,255,0.08)"/>
<rect x="678.0" y="262.0" width="23.5" height="23.5" rx="5" fill="rgba(255,255,255,0.08)"/>
<rect x="678.0" y="289.5" width="23.5" height="23.5" rx="5" fill="rgba(255,255,255,0.08)"/>
<rect x="678.0" y="317.1" width="23.5" height="23.5" rx="5" fill="rgba(255,255,255,0.08)"/>
<rect x="678.0" y="344.6" width="23.5" height="23.5" rx="5" fill="rgba(255,255,255,0.08)"/>
<rect x="678.0" y="372.2" width="23.5" height="23.5" rx="5" fill="rgba(255,255,255,0.08)"/>
<rect x="678.0" y="399.7" width="23.5" height="23.5" rx="5" fill="rgba(255,255,255,0.08)"/>
<rect x="678.0" y="427.3" width="23.5" height="23.5" rx="5" fill="rgba(255,255,255,0.08)"/>
<rect x="705.6" y="262.0" width="23.5" height="23.5" rx="5" fill="rgba(255,255,255,0.08)"/>
<rect x="705.6" y="289.5" width="23.5" height="23.5" rx="5" fill="rgba(255,255,255,0.08)"/>
<rect x="705.6" y="317.1" width="23.5" height="23.5" rx="5" fill="rgba(255,255,255,0.08)"/>
<rect x="705.6" y="344.6" width="23.5" height="23.5" rx="5" fill="rgba(255,255,255,0.08)"/>
<rect x="705.6" y="372.2" width="23.5" height="23.5" rx="5" fill="rgba(255,255,255,0.08)"/>
<rect x="705.6" y="399.7" width="23.5" height="23.5" rx="5" fill="rgba(255,255,255,0.08)"/>
<rect x="705.6" y="427.3" width="23.5" height="23.5" rx="5" fill="rgba(255,255,255,0.08)"/>
<rect x="733.1" y="262.0" width="23.5" height="23.5" rx="5" fill="rgba(255,77,46,0.32)"/>
<rect x="733.1" y="289.5" width="23.5" height="23.5" rx="5" fill="rgba(255,255,255,0.08)"/>
<rect x="733.1" y="317.1" width="23.5" height="23.5" rx="5" fill="rgba(255,255,255,0.08)"/>
<rect x="733.1" y="344.6" width="23.5" height="23.5" rx="5" fill="rgba(255,255,255,0.08)"/>
<rect x="733.1" y="372.2" width="23.5" height="23.5" rx="5" fill="rgba(255,255,255,0.08)"/>
<rect x="733.1" y="399.7" width="23.5" height="23.5" rx="5" fill="rgba(255,255,255,0.08)"/>
<rect x="733.1" y="427.3" width="23.5" height="23.5" rx="5" fill="rgba(255,255,255,0.08)"/>
<rect x="760.7" y="262.0" width="23.5" height="23.5" rx="5" fill="rgba(255,77,46,0.32)"/>
<rect x="760.7" y="289.5" width="23.5" height="23.5" rx="5" fill="rgba(255,255,255,0.08)"/>
<rect x="760.7" y="317.1" width="23.5" height="23.5" rx="5" fill="rgba(255,255,255,0.08)"/>
<rect x="760.7" y="344.6" width="23.5" height="23.5" rx="5" fill="rgba(255,255,255,0.08)"/>
<rect x="760.7" y="372.2" width="23.5" height="23.5" rx="5" fill="rgba(255,255,255,0.08)"/>
<rect x="760.7" y="399.7" width="23.5" height="23.5" rx="5" fill="rgba(255,255,255,0.08)"/>
<rect x="760.7" y="427.3" width="23.5" height="23.5" rx="5" fill="rgba(255,255,255,0.08)"/>
<rect x="788.2" y="262.0" width="23.5" height="23.5" rx="5" fill="rgba(255,255,255,0.08)"/>
<rect x="788.2" y="289.5" width="23.5" height="23.5" rx="5" fill="rgba(255,255,255,0.08)"/>
<rect x="788.2" y="317.1" width="23.5" height="23.5" rx="5" fill="rgba(255,255,255,0.08)"/>
<rect x="788.2" y="344.6" width="23.5" height="23.5" rx="5" fill="rgba(255,255,255,0.08)"/>
<rect x="788.2" y="372.2" width="23.5" height="23.5" rx="5" fill="rgba(255,255,255,0.08)"/>
<rect x="788.2" y="399.7" width="23.5" height="23.5" rx="5" fill="rgba(255,255,255,0.08)"/>
<rect x="788.2" y="427.3" width="23.5" height="23.5" rx="5" fill="rgba(255,255,255,0.08)"/>
<rect x="815.8" y="262.0" width="23.5" height="23.5" rx="5" fill="rgba(255,255,255,0.08)"/>
<rect x="815.8" y="289.5" width="23.5" height="23.5" rx="5" fill="rgba(255,255,255,0.08)"/>
<rect x="815.8" y="317.1" width="23.5" height="23.5" rx="5" fill="rgba(255,255,255,0.08)"/>
<rect x="815.8" y="344.6" width="23.5" height="23.5" rx="5" fill="rgba(255,255,255,0.08)"/>
<rect x="815.8" y="372.2" width="23.5" height="23.5" rx="5" fill="rgba(255,255,255,0.08)"/>
<rect x="815.8" y="399.7" width="23.5" height="23.5" rx="5" fill="rgba(255,255,255,0.08)"/>
<rect x="815.8" y="427.3" width="23.5" height="23.5" rx="5" fill="rgba(255,255,255,0.08)"/>
<rect x="843.3" y="262.0" width="23.5" height="23.5" rx="5" fill="rgba(255,255,255,0.08)"/>
<rect x="843.3" y="289.5" width="23.5" height="23.5" rx="5" fill="rgba(255,255,255,0.08)"/>
<rect x="843.3" y="317.1" width="23.5" height="23.5" rx="5" fill="rgba(255,255,255,0.08)"/>
<rect x="843.3" y="344.6" width="23.5" height="23.5" rx="5" fill="rgba(255,255,255,0.08)"/>
<rect x="843.3" y="372.2" width="23.5" height="23.5" rx="5" fill="rgba(255,255,255,0.08)"/>
<rect x="843.3" y="399.7" width="23.5" height="23.5" rx="5" fill="rgba(255,255,255,0.08)"/>
<rect x="843.3" y="427.3" width="23.5" height="23.5" rx="5" fill="rgba(255,255,255,0.08)"/>
<rect x="870.9" y="262.0" width="23.5" height="23.5" rx="5" fill="rgba(255,255,255,0.08)"/>
<rect x="870.9" y="289.5" width="23.5" height="23.5" rx="5" fill="rgba(255,255,255,0.08)"/>
<rect x="870.9" y="317.1" width="23.5" height="23.5" rx="5" fill="rgba(255,255,255,0.08)"/>
<rect x="870.9" y="344.6" width="23.5" height="23.5" rx="5" fill="rgba(255,255,255,0.08)"/>
<rect x="870.9" y="372.2" width="23.5" height="23.5" rx="5" fill="rgba(255,255,255,0.08)"/>
<rect x="870.9" y="399.7" width="23.5" height="23.5" rx="5" fill="rgba(255,255,255,0.08)"/>
<rect x="870.9" y="427.3" width="23.5" height="23.5" rx="5" fill="rgba(255,255,255,0.08)"/>
<rect x="898.4" y="262.0" width="23.5" height="23.5" rx="5" fill="rgba(255,255,255,0.08)"/>
<rect x="898.4" y="289.5" width="23.5" height="23.5" rx="5" fill="rgba(255,255,255,0.08)"/>
<rect x="898.4" y="317.1" width="23.5" height="23.5" rx="5" fill="rgba(255,255,255,0.08)"/>
<rect x="898.4" y="344.6" width="23.5" height="23.5" rx="5" fill="rgba(255,255,255,0.08)"/>
<rect x="898.4" y="372.2" width="23.5" height="23.5" rx="5" fill="rgba(255,255,255,0.08)"/>
<rect x="898.4" y="399.7" width="23.5" height="23.5" rx="5" fill="rgba(255,255,255,0.08)"/>
<rect x="898.4" y="427.3" width="23.5" height="23.5" rx="5" fill="rgba(255,255,255,0.08)"/>
<rect x="926.0" y="262.0" width="23.5" height="23.5" rx="5" fill="rgba(255,255,255,0.08)"/>
<rect x="926.0" y="289.5" width="23.5" height="23.5" rx="5" fill="rgba(255,255,255,0.08)"/>
<rect x="926.0" y="317.1" width="23.5" height="23.5" rx="5" fill="rgba(255,255,255,0.08)"/>
<rect x="926.0" y="344.6" width="23.5" height="23.5" rx="5" fill="rgba(255,255,255,0.08)"/>
<rect x="926.0" y="372.2" width="23.5" height="23.5" rx="5" fill="rgba(255,255,255,0.08)"/>
<rect x="926.0" y="399.7" width="23.5" height="23.5" rx="5" fill="rgba(255,255,255,0.08)"/>
<rect x="926.0" y="427.3" width="23.5" height="23.5" rx="5" fill="rgba(255,255,255,0.08)"/>
<rect x="953.5" y="262.0" width="23.5" height="23.5" rx="5" fill="rgba(255,255,255,0.08)"/>
<rect x="953.5" y="289.5" width="23.5" height="23.5" rx="5" fill="rgba(255,255,255,0.08)"/>
<rect x="953.5" y="317.1" width="23.5" height="23.5" rx="5" fill="rgba(255,255,255,0.08)"/>
<rect x="953.5" y="344.6" width="23.5" height="23.5" rx="5" fill="rgba(255,255,255,0.08)"/>
<rect x="953.5" y="372.2" width="23.5" height="23.5" rx="5" fill="rgba(255,255,255,0.08)"/>
<rect x="953.5" y="399.7" width="23.5" height="23.5" rx="5" fill="rgba(255,255,255,0.08)"/>
<rect x="953.5" y="427.3" width="23.5" height="23.5" rx="5" fill="rgba(255,255,255,0.08)"/>
<rect x="981.1" y="262.0" width="23.5" height="23.5" rx="5" fill="rgba(255,255,255,0.08)"/>
<rect x="981.1" y="289.5" width="23.5" height="23.5" rx="5" fill="rgba(255,255,255,0.08)"/>
<rect x="981.1" y="317.1" width="23.5" height="23.5" rx="5" fill="rgba(255,255,255,0.08)"/>
<rect x="981.1" y="344.6" width="23.5" height="23.5" rx="5" fill="rgba(255,255,255,0.08)"/>
<rect x="981.1" y="372.2" width="23.5" height="23.5" rx="5" fill="rgba(255,255,255,0.08)"/>
<rect x="981.1" y="399.7" width="23.5" height="23.5" rx="5" fill="rgba(255,255,255,0.08)"/>
<rect x="981.1" y="427.3" width="23.5" height="23.5" rx="5" fill="rgba(255,255,255,0.08)"/>
<rect x="1008.6" y="262.0" width="23.5" height="23.5" rx="5" fill="rgba(255,255,255,0.08)"/>
<rect x="1008.6" y="289.5" width="23.5" height="23.5" rx="5" fill="rgba(255,255,255,0.08)"/>
<rect x="1008.6" y="317.1" width="23.5" height="23.5" rx="5" fill="rgba(255,255,255,0.08)"/>
<rect x="1008.6" y="344.6" width="23.5" height="23.5" rx="5" fill="rgba(255,255,255,0.08)"/>
<rect x="1008.6" y="372.2" width="23.5" height="23.5" rx="5" fill="rgba(255,255,255,0.08)"/>
<rect x="1008.6" y="399.7" width="23.5" height="23.5" rx="5" fill="rgba(255,255,255,0.08)"/>
<rect x="1008.6" y="427.3" width="23.5" height="23.5" rx="5" fill="rgba(255,255,255,0.08)"/>
<rect x="1036.2" y="262.0" width="23.5" height="23.5" rx="5" fill="rgba(255,255,255,0.08)"/>
<rect x="1036.2" y="289.5" width="23.5" height="23.5" rx="5" fill="rgba(255,255,255,0.08)"/>
<rect x="1036.2" y="317.1" width="23.5" height="23.5" rx="5" fill="rgba(255,255,255,0.08)"/>
<rect x="1036.2" y="344.6" width="23.5" height="23.5" rx="5" fill="rgba(255,255,255,0.08)"/>
<rect x="1036.2" y="372.2" width="23.5" height="23.5" rx="5" fill="rgba(255,255,255,0.08)"/>
<rect x="1036.2" y="399.7" width="23.5" height="23.5" rx="5" fill="rgba(255,255,255,0.08)"/>
<rect x="1036.2" y="427.3" width="23.5" height="23.5" rx="5" fill="rgba(255,255,255,0.08)"/>
<rect x="1063.7" y="262.0" width="23.5" height="23.5" rx="5" fill="rgba(255,255,255,0.08)"/>
<rect x="1063.7" y="289.5" width="23.5" height="23.5" rx="5" fill="rgba(255,77,46,0.30)"/>
<rect x="1063.7" y="317.1" width="23.5" height="23.5" rx="5" fill="rgba(255,77,46,0.39)"/>
<rect x="1063.7" y="344.6" width="23.5" height="23.5" rx="5" fill="rgba(255,255,255,0.08)"/>
<rect x="1063.7" y="372.2" width="23.5" height="23.5" rx="5" fill="rgba(255,77,46,0.35)"/>
<rect x="1063.7" y="399.7" width="23.5" height="23.5" rx="5" fill="rgba(255,77,46,0.52)"/>
<rect x="1063.7" y="427.3" width="23.5" height="23.5" rx="5" fill="rgba(255,77,46,0.30)"/>
<rect x="1091.2" y="262.0" width="23.5" height="23.5" rx="5" fill="rgba(255,255,255,0.08)"/>
<rect x="1091.2" y="289.5" width="23.5" height="23.5" rx="5" fill="rgba(255,255,255,0.08)"/>
<rect x="1091.2" y="317.1" width="23.5" height="23.5" rx="5" fill="rgba(255,255,255,0.08)"/>
<rect x="1091.2" y="344.6" width="23.5" height="23.5" rx="5" fill="rgba(255,255,255,0.08)"/>
<rect x="1091.2" y="372.2" width="23.5" height="23.5" rx="5" fill="rgba(255,255,255,0.08)"/>
<rect x="1091.2" y="399.7" width="23.5" height="23.5" rx="5" fill="rgba(255,255,255,0.08)"/>
<rect x="1091.2" y="427.3" width="23.5" height="23.5" rx="5" fill="rgba(255,255,255,0.08)"/>
<rect x="1118.8" y="262.0" width="23.5" height="23.5" rx="5" fill="rgba(255,77,46,0.30)"/>
<rect x="1118.8" y="289.5" width="23.5" height="23.5" rx="5" fill="rgba(255,77,46,0.48)"/>
<rect x="1118.8" y="317.1" width="23.5" height="23.5" rx="5" fill="rgba(255,255,255,0.08)"/>
<rect x="1118.8" y="344.6" width="23.5" height="23.5" rx="5" fill="rgba(255,77,46,0.72)"/>
<rect x="1118.8" y="372.2" width="23.5" height="23.5" rx="5" fill="rgba(255,255,255,0.08)"/>
<rect x="1118.8" y="399.7" width="23.5" height="23.5" rx="5" fill="rgba(255,255,255,0.08)"/>
<rect x="1118.8" y="427.3" width="23.5" height="23.5" rx="5" fill="rgba(255,77,46,0.35)"/>
<rect x="1146.3" y="262.0" width="23.5" height="23.5" rx="5" fill="rgba(255,255,255,0.08)"/>
<rect x="1146.3" y="289.5" width="23.5" height="23.5" rx="5" fill="rgba(255,77,46,0.38)"/>
<rect x="1146.3" y="317.1" width="23.5" height="23.5" rx="5" fill="rgba(255,77,46,0.32)"/>
<rect x="1146.3" y="344.6" width="23.5" height="23.5" rx="5" fill="rgba(255,77,46,0.35)"/>
<rect x="1146.3" y="372.2" width="23.5" height="23.5" rx="5" fill="rgba(255,77,46,0.43)"/>
<rect x="1146.3" y="399.7" width="23.5" height="23.5" rx="5" fill="rgba(255,255,255,0.08)"/>
<rect x="1146.3" y="427.3" width="23.5" height="23.5" rx="5" fill="rgba(255,77,46,0.44)"/>
<rect x="1173.9" y="262.0" width="23.5" height="23.5" rx="5" fill="rgba(255,77,46,0.40)"/>
<rect x="1173.9" y="289.5" width="23.5" height="23.5" rx="5" fill="rgba(255,77,46,0.50)"/>
<rect x="1173.9" y="317.1" width="23.5" height="23.5" rx="5" fill="rgba(255,255,255,0.08)"/>
<rect x="1173.9" y="344.6" width="23.5" height="23.5" rx="5" fill="rgba(255,255,255,0.08)"/>
<rect x="1173.9" y="372.2" width="23.5" height="23.5" rx="5" fill="rgba(255,255,255,0.08)"/>
<rect x="1173.9" y="399.7" width="23.5" height="23.5" rx="5" fill="rgba(255,255,255,0.08)"/>
<rect x="1173.9" y="427.3" width="23.5" height="23.5" rx="5" fill="rgba(255,255,255,0.08)"/>
<rect x="1201.4" y="262.0" width="23.5" height="23.5" rx="5" fill="rgba(255,77,46,0.52)"/>
<rect x="1201.4" y="289.5" width="23.5" height="23.5" rx="5" fill="rgba(255,255,255,0.08)"/>
<rect x="1201.4" y="317.1" width="23.5" height="23.5" rx="5" fill="rgba(255,77,46,0.34)"/>
<rect x="1201.4" y="344.6" width="23.5" height="23.5" rx="5" fill="rgba(255,77,46,0.35)"/>
<rect x="1201.4" y="372.2" width="23.5" height="23.5" rx="5" fill="rgba(255,77,46,0.34)"/>
<rect x="1201.4" y="399.7" width="23.5" height="23.5" rx="5" fill="rgba(255,77,46,0.49)"/>
<rect x="1201.4" y="427.3" width="23.5" height="23.5" rx="5" fill="rgba(255,77,46,0.54)"/>
<rect x="1229.0" y="262.0" width="23.5" height="23.5" rx="5" fill="rgba(255,77,46,0.35)"/>
<rect x="1229.0" y="289.5" width="23.5" height="23.5" rx="5" fill="rgba(255,77,46,0.34)"/>
<rect x="1229.0" y="317.1" width="23.5" height="23.5" rx="5" fill="rgba(255,77,46,0.39)"/>
<rect x="1229.0" y="344.6" width="23.5" height="23.5" rx="5" fill="rgba(255,77,46,0.39)"/>
<rect x="1229.0" y="372.2" width="23.5" height="23.5" rx="5" fill="rgba(255,77,46,0.34)"/>
<rect x="1229.0" y="399.7" width="23.5" height="23.5" rx="5" fill="rgba(255,77,46,0.44)"/>
<rect x="1229.0" y="427.3" width="23.5" height="23.5" rx="5" fill="rgba(255,77,46,0.34)"/>
<rect x="1256.5" y="262.0" width="23.5" height="23.5" rx="5" fill="rgba(255,77,46,0.49)"/>
<rect x="1256.5" y="289.5" width="23.5" height="23.5" rx="5" fill="rgba(255,77,46,0.44)"/>
<rect x="1256.5" y="317.1" width="23.5" height="23.5" rx="5" fill="rgba(255,77,46,0.40)"/>
<rect x="1256.5" y="344.6" width="23.5" height="23.5" rx="5" fill="rgba(255,77,46,0.39)"/>
<rect x="1256.5" y="372.2" width="23.5" height="23.5" rx="5" fill="rgba(255,77,46,0.49)"/>
<rect x="1256.5" y="399.7" width="23.5" height="23.5" rx="5" fill="rgba(255,77,46,0.64)"/>
<rect x="1256.5" y="427.3" width="23.5" height="23.5" rx="5" fill="rgba(255,77,46,0.35)"/>
<rect x="1284.1" y="262.0" width="23.5" height="23.5" rx="5" fill="rgba(255,77,46,0.67)"/>
<rect x="1284.1" y="289.5" width="23.5" height="23.5" rx="5" fill="rgba(255,77,46,0.63)"/>
<rect x="1284.1" y="317.1" width="23.5" height="23.5" rx="5" fill="rgba(255,77,46,0.46)"/>
<rect x="1284.1" y="344.6" width="23.5" height="23.5" rx="5" fill="rgba(255,77,46,0.39)"/>
<rect x="1284.1" y="372.2" width="23.5" height="23.5" rx="5" fill="rgba(255,77,46,0.30)"/>
<rect x="1284.1" y="399.7" width="23.5" height="23.5" rx="5" fill="rgba(255,77,46,0.88)"/>
<rect x="1284.1" y="427.3" width="23.5" height="23.5" rx="5" fill="rgba(255,77,46,0.70)"/>
<rect x="1311.6" y="262.0" width="23.5" height="23.5" rx="5" fill="rgba(255,77,46,0.67)"/>
<rect x="1311.6" y="289.5" width="23.5" height="23.5" rx="5" fill="rgba(255,77,46,0.62)"/>
<rect x="1311.6" y="317.1" width="23.5" height="23.5" rx="5" fill="rgba(255,77,46,0.72)"/>
<rect x="1311.6" y="344.6" width="23.5" height="23.5" rx="5" fill="rgba(255,77,46,0.47)"/>
<rect x="1311.6" y="372.2" width="23.5" height="23.5" rx="5" fill="rgba(255,77,46,0.74)"/>
<rect x="1311.6" y="399.7" width="23.5" height="23.5" rx="5" fill="rgba(255,77,46,0.55)"/>
<rect x="1311.6" y="427.3" width="23.5" height="23.5" rx="5" fill="rgba(255,77,46,0.46)"/>
<rect x="1339.2" y="262.0" width="23.5" height="23.5" rx="5" fill="rgba(255,77,46,0.50)"/>
<rect x="1339.2" y="289.5" width="23.5" height="23.5" rx="5" fill="rgba(255,77,46,0.46)"/>
<rect x="1339.2" y="317.1" width="23.5" height="23.5" rx="5" fill="rgba(255,77,46,0.48)"/>
<rect x="1339.2" y="344.6" width="23.5" height="23.5" rx="5" fill="rgba(255,77,46,0.54)"/>
<rect x="1339.2" y="372.2" width="23.5" height="23.5" rx="5" fill="rgba(255,77,46,0.68)"/>
<rect x="1339.2" y="399.7" width="23.5" height="23.5" rx="5" fill="rgba(255,77,46,0.48)"/>
<rect x="1339.2" y="427.3" width="23.5" height="23.5" rx="5" fill="rgba(255,77,46,0.34)"/>
<rect x="1366.7" y="262.0" width="23.5" height="23.5" rx="5" fill="rgba(255,255,255,0.08)"/>
<rect x="1366.7" y="289.5" width="23.5" height="23.5" rx="5" fill="rgba(255,77,46,0.41)"/>
<rect x="1366.7" y="317.1" width="23.5" height="23.5" rx="5" fill="rgba(255,77,46,0.44)"/>
<rect x="1366.7" y="344.6" width="23.5" height="23.5" rx="5" fill="rgba(255,77,46,0.57)"/>
<rect x="1366.7" y="372.2" width="23.5" height="23.5" rx="5" fill="rgba(255,77,46,0.59)"/>
<rect x="1366.7" y="399.7" width="23.5" height="23.5" rx="5" fill="rgba(255,77,46,0.56)"/>
<rect x="1366.7" y="427.3" width="23.5" height="23.5" rx="5" fill="rgba(255,77,46,0.64)"/>
<rect x="1394.3" y="262.0" width="23.5" height="23.5" rx="5" fill="rgba(255,77,46,0.46)"/>
<rect x="1394.3" y="289.5" width="23.5" height="23.5" rx="5" fill="rgba(255,77,46,1.00)"/>
<rect x="1394.3" y="317.1" width="23.5" height="23.5" rx="5" fill="rgba(255,77,46,0.41)"/>
<rect x="1394.3" y="344.6" width="23.5" height="23.5" rx="5" fill="rgba(255,77,46,0.42)"/>
<rect x="1394.3" y="372.2" width="23.5" height="23.5" rx="5" fill="rgba(255,77,46,0.64)"/>
<rect x="1394.3" y="399.7" width="23.5" height="23.5" rx="5" fill="rgba(255,77,46,0.66)"/>
<rect x="1394.3" y="427.3" width="23.5" height="23.5" rx="5" fill="rgba(255,77,46,0.48)"/>
<rect x="1421.8" y="262.0" width="23.5" height="23.5" rx="5" fill="rgba(255,77,46,0.41)"/>
<rect x="1421.8" y="289.5" width="23.5" height="23.5" rx="5" fill="rgba(255,77,46,0.80)"/>
<rect x="1421.8" y="317.1" width="23.5" height="23.5" rx="5" fill="rgba(255,77,46,0.52)"/>
<rect x="1421.8" y="344.6" width="23.5" height="23.5" rx="5" fill="rgba(255,77,46,0.50)"/>
<rect x="1421.8" y="372.2" width="23.5" height="23.5" rx="5" fill="rgba(255,77,46,0.44)"/>
<rect x="1421.8" y="399.7" width="23.5" height="23.5" rx="5" fill="rgba(255,77,46,0.49)"/>
<rect x="1421.8" y="427.3" width="23.5" height="23.5" rx="5" fill="rgba(255,77,46,0.42)"/>
<rect x="1449.4" y="262.0" width="23.5" height="23.5" rx="5" fill="rgba(255,77,46,0.35)"/>
<rect x="1449.4" y="289.5" width="23.5" height="23.5" rx="5" fill="rgba(255,77,46,0.49)"/>
<rect x="1449.4" y="317.1" width="23.5" height="23.5" rx="5" fill="rgba(255,77,46,0.30)"/>
<rect x="1449.4" y="344.6" width="23.5" height="23.5" rx="5" fill="rgba(255,77,46,0.49)"/>
<rect x="1449.4" y="372.2" width="23.5" height="23.5" rx="5" fill="rgba(255,77,46,0.48)"/>
<rect x="1449.4" y="399.7" width="23.5" height="23.5" rx="5" fill="rgba(255,77,46,0.50)"/>
<rect x="1449.4" y="427.3" width="23.5" height="23.5" rx="5" fill="rgba(255,77,46,0.57)"/>
<rect x="1476.9" y="262.0" width="23.5" height="23.5" rx="5" fill="rgba(255,77,46,0.42)"/>
<rect x="1476.9" y="289.5" width="23.5" height="23.5" rx="5" fill="rgba(255,77,46,0.44)"/>
<rect x="1476.9" y="317.1" width="23.5" height="23.5" rx="5" fill="rgba(255,77,46,0.35)"/>
<rect x="1476.9" y="344.6" width="23.5" height="23.5" rx="5" fill="rgba(255,255,255,0.08)"/>
<rect x="1476.9" y="372.2" width="23.5" height="23.5" rx="5" fill="rgba(255,77,46,0.53)"/>
<rect x="1476.9" y="399.7" width="23.5" height="23.5" rx="5" fill="rgba(255,77,46,0.56)"/>
<rect x="1476.9" y="427.3" width="23.5" height="23.5" rx="5" fill="rgba(255,77,46,0.38)"/>
<rect x="1504.5" y="262.0" width="23.5" height="23.5" rx="5" fill="rgba(255,77,46,0.41)"/>
<rect x="1504.5" y="289.5" width="23.5" height="23.5" rx="5" fill="rgba(255,77,46,0.38)"/>
<rect x="1504.5" y="317.1" width="23.5" height="23.5" rx="5" fill="rgba(255,77,46,0.38)"/>
<rect x="1504.5" y="344.6" width="23.5" height="23.5" rx="5" fill="rgba(255,77,46,0.38)"/>
<text x="72.0" y="472.8" font-family="'JetBrains Mono',ui-monospace,Menlo,Consolas,monospace" font-size="10.5" letter-spacing="1.4" fill="#64637a">OCT</text>
<text x="182.2" y="472.8" font-family="'JetBrains Mono',ui-monospace,Menlo,Consolas,monospace" font-size="10.5" letter-spacing="1.4" fill="#64637a">NOV</text>
<text x="319.9" y="472.8" font-family="'JetBrains Mono',ui-monospace,Menlo,Consolas,monospace" font-size="10.5" letter-spacing="1.4" fill="#64637a">DEC</text>
<text x="430.1" y="472.8" font-family="'JetBrains Mono',ui-monospace,Menlo,Consolas,monospace" font-size="10.5" letter-spacing="1.4" fill="#64637a">JAN</text>
<text x="540.3" y="472.8" font-family="'JetBrains Mono',ui-monospace,Menlo,Consolas,monospace" font-size="10.5" letter-spacing="1.4" fill="#64637a">FEB</text>
<text x="650.5" y="472.8" font-family="'JetBrains Mono',ui-monospace,Menlo,Consolas,monospace" font-size="10.5" letter-spacing="1.4" fill="#64637a">MAR</text>
<text x="788.2" y="472.8" font-family="'JetBrains Mono',ui-monospace,Menlo,Consolas,monospace" font-size="10.5" letter-spacing="1.4" fill="#64637a">APR</text>
<text x="898.4" y="472.8" font-family="'JetBrains Mono',ui-monospace,Menlo,Consolas,monospace" font-size="10.5" letter-spacing="1.4" fill="#64637a">MAY</text>
<text x="1036.2" y="472.8" font-family="'JetBrains Mono',ui-monospace,Menlo,Consolas,monospace" font-size="10.5" letter-spacing="1.4" fill="#64637a">JUN</text>
<text x="1146.3" y="472.8" font-family="'JetBrains Mono',ui-monospace,Menlo,Consolas,monospace" font-size="10.5" letter-spacing="1.4" fill="#64637a">JUL</text>
<text x="1256.5" y="472.8" font-family="'JetBrains Mono',ui-monospace,Menlo,Consolas,monospace" font-size="10.5" letter-spacing="1.4" fill="#64637a">AUG</text>
<text x="1394.3" y="472.8" font-family="'JetBrains Mono',ui-monospace,Menlo,Consolas,monospace" font-size="10.5" letter-spacing="1.4" fill="#64637a">SEP</text>
<text x="1504.5" y="472.8" font-family="'JetBrains Mono',ui-monospace,Menlo,Consolas,monospace" font-size="10.5" letter-spacing="1.4" fill="#64637a">OCT</text>
<text x="72" y="476" font-family="'JetBrains Mono',ui-monospace,Menlo,Consolas,monospace" font-size="11" letter-spacing="1.7" fill="#64637a">LANGUAGES ACROSS 28 PUBLIC REPOSITORIES, BY BYTES</text>
<rect x="72.0" y="492" width="732.3" height="12" rx="4" fill="#e34c26"/>
<rect x="807.3" y="492" width="536.2" height="12" rx="4" fill="#3178c6"/>
<rect x="1346.5" y="492" width="139.4" height="12" rx="4" fill="#3572A5"/>
<rect x="1488.9" y="492" width="14.1" height="12" rx="4" fill="#663399"/>
<rect x="1506.0" y="492" width="10.8" height="12" rx="4" fill="#f1e05a"/>
<rect x="1519.8" y="492" width="2.6" height="12" rx="4" fill="#336790"/>
<circle cx="78" cy="536" r="5" fill="#e34c26"/><text x="90" y="540" font-family="Inter,ui-sans-serif,system-ui,-apple-system,'Segoe UI',Roboto,sans-serif" font-size="14" font-weight="600" fill="#f4f3f8">HTML <tspan fill="#a09fb0" font-weight="500">50.5%</tspan></text>
<circle cx="268" cy="536" r="5" fill="#3178c6"/><text x="280" y="540" font-family="Inter,ui-sans-serif,system-ui,-apple-system,'Segoe UI',Roboto,sans-serif" font-size="14" font-weight="600" fill="#f4f3f8">TypeScript <tspan fill="#a09fb0" font-weight="500">37.0%</tspan></text>
<circle cx="458" cy="536" r="5" fill="#3572A5"/><text x="470" y="540" font-family="Inter,ui-sans-serif,system-ui,-apple-system,'Segoe UI',Roboto,sans-serif" font-size="14" font-weight="600" fill="#f4f3f8">Python <tspan fill="#a09fb0" font-weight="500">9.8%</tspan></text>
<circle cx="648" cy="536" r="5" fill="#663399"/><text x="660" y="540" font-family="Inter,ui-sans-serif,system-ui,-apple-system,'Segoe UI',Roboto,sans-serif" font-size="14" font-weight="600" fill="#f4f3f8">CSS <tspan fill="#a09fb0" font-weight="500">1.2%</tspan></text>
<circle cx="838" cy="536" r="5" fill="#f1e05a"/><text x="850" y="540" font-family="Inter,ui-sans-serif,system-ui,-apple-system,'Segoe UI',Roboto,sans-serif" font-size="14" font-weight="600" fill="#f4f3f8">JavaScript <tspan fill="#a09fb0" font-weight="500">0.9%</tspan></text>
<circle cx="1028" cy="536" r="5" fill="#336790"/><text x="1040" y="540" font-family="Inter,ui-sans-serif,system-ui,-apple-system,'Segoe UI',Roboto,sans-serif" font-size="14" font-weight="600" fill="#f4f3f8">PLpgSQL <tspan fill="#a09fb0" font-weight="500">0.4%</tspan></text>
<text x="1544" y="572" text-anchor="end" font-family="'JetBrains Mono',ui-monospace,Menlo,Consolas,monospace" font-size="12" letter-spacing="1.9" fill="#64637a">PRANJUL RATHOUR · SINCE 2024</text>
</svg>